<svg width="68" height="13" viewBox="0 0 68 13" fill="none" xmlns="http://www.w3.org/2000/svg">
<path d="M0.207153 0.402588H10.2271V3.53094H3.89201V5.08063H9.95784V7.78897H3.89201V11.7863H0.221326V0.402588H0.207153Z" fill="black"/>
<path d="M20.8423 11.7863L19.34 8.84623H16.548V11.7863H12.8773V0.402588H19.2549C22.3446 0.402588 24.0878 1.764 24.0878 4.74752C24.0878 6.28272 23.4075 7.36896 22.4721 8.03518L24.4563 11.7718H20.8423V11.7863ZM16.548 6.03651H18.9998C19.9352 6.03651 20.4029 5.57305 20.4029 4.77648C20.4029 3.97991 19.9211 3.51645 18.9998 3.51645H16.548V6.03651Z" fill="black"/>
<path d="M26.3412 6.09496C26.3412 2.44523 28.8214 0.0265503 32.648 0.0265503C36.4745 0.0265503 38.9547 2.44523 38.9547 6.09496C38.9547 9.7447 36.4745 12.1634 32.648 12.1634C28.8214 12.1634 26.3412 9.7447 26.3412 6.09496ZM35.3124 6.09496C35.3124 4.29906 34.1077 3.25628 32.648 3.25628C31.1882 3.25628 29.9835 4.28458 29.9835 6.09496C29.9835 7.89086 31.1882 8.93365 32.648 8.93365C34.1077 8.93365 35.3124 7.89086 35.3124 6.09496Z" fill="black"/>
<path d="M41.4776 0.402588H45.701L49.4 6.5579H49.726V0.402588H53.3116V11.7863H49.1874L45.3892 5.63099H45.0632V11.7863H41.4776V0.402588Z" fill="black"/>
<path d="M67.229 3.53094H63.2182V11.7863H59.5475V3.53094H55.5367V0.402588H67.229V3.53094Z" fill="black"/>
</svg>
